<?xml version="1.0" encoding="utf-8"?>
<!-- Generator: Adobe Illustrator 24.0.3, SVG Export Plug-In . SVG Version: 6.00 Build 0)  -->
<svg version="1.1" id="Layer_2" xmlns="http://www.w3.org/2000/svg" xmlns:xlink="http://www.w3.org/1999/xlink" x="0px" y="0px"
	 viewBox="0 0 596.8 267.5" style="enable-background:new 0 0 596.8 267.5;" xml:space="preserve">
<style type="text/css">
	.st0{fill:#0A1C2A;}
	.st1{fill:#FFCD05;}
</style>
<g>
	<g>
		<path class="st0" d="M316.7,84.3c2.6,2.9,3.8,6.8,3.8,11.8c0,11.4-3.2,19.7-9.5,24.9c-6.3,5.2-15.9,7.9-28.6,7.9
			c-11,0-19.2-0.9-24.7-2.8c-1.8-0.6-2.7-2.1-2.7-4.3c0-2.3,0.8-5.5,2.5-9.7c1-2.5,2.8-3.8,5.2-3.8c0.3,0,2.2,0.4,5.8,1.1
			c5.6,1.1,11.2,1.7,16.7,1.7c3.5,0,6.2-0.5,8-1.6c1.8-1.1,2.7-3.1,2.7-6.1c0-1.7-0.5-3.1-1.4-4.1c-0.9-1-2.4-1.9-4.6-2.6l-8.2-2.8
			c-5.8-2.1-10.1-4.6-12.8-7.6c-2.7-3-4-7.1-4-12.3c0-21.1,12.6-31.7,37.7-31.7c7.8,0,14.8,0.7,20.9,2.2c1.7,0.4,2.6,1.8,2.6,4.1
			c0,2.9-0.7,6.3-2,10.1c-0.8,2.2-2.3,3.3-4.5,3.3c-0.4,0-2.5-0.3-6.4-0.8c-6.1-0.9-11.4-1.3-16.1-1.3c-2.7,0-4.7,0.7-6.1,2.1
			c-1.4,1.4-2.1,3.2-2.1,5.4c0,1.6,0.4,2.9,1.1,4s2.2,2,4.3,2.8l9.2,3.4C309.8,79.1,314.1,81.4,316.7,84.3z"/>
		<path class="st0" d="M377.2,123.4c-1.3,1.2-3.2,2.1-5.6,2.8c-6.3,1.7-14.2,2.6-23.7,2.6c-8.2,0-13.8-1.4-16.9-4.2
			c-3.1-2.8-4.6-6.5-4.6-11.1c0-9,3.2-15.5,9.5-19.5c3.9-2.5,10.6-3.8,20-3.8c2.4,0,5.1,0.1,8.2,0.4l0.2-1.2
			c0.2-0.8,0.2-1.5,0.2-2.1c0-2.1-2.1-3.1-6.3-3.1c-3.5,0-7.1,0.2-10.8,0.7c-2.8,0.5-4.7,0.7-5.6,0.7c-1.7,0-2.7-1-3.1-3.1
			c-0.6-3.3-0.8-6.1-0.8-8.4c0-2.4,1.5-4.1,4.5-5.1c5.5-1.7,12.6-2.6,21.2-2.6c3.8,0,6.9,0.1,9.3,0.4c2.4,0.3,4.8,0.8,7.2,1.7
			c2.4,0.8,4.2,2.1,5.3,4c1.1,1.8,1.7,4.1,1.7,7c0,3.2-0.4,6.5-1.1,9.9l-5.9,27.5C379.5,119.9,378.5,122.1,377.2,123.4z
			 M356.1,103.5c-3.1,0-5.2,0.4-6.4,1.2c-1.5,1-2.2,2.6-2.2,4.7c0,2.7,1.7,4,5,4c2.5,0,4.4-0.4,5.6-1.1c0.8-0.5,1.3-1.1,1.5-1.8
			c0.2-0.5,0.6-2.1,1.2-4.7l0.5-2.1C359.8,103.6,358.1,103.5,356.1,103.5z"/>
		<path class="st0" d="M412.2,127.3h-14.3c-2.1,0-3.1-0.9-3.1-2.7c0-0.7,0.1-1.5,0.4-2.5l7.8-37h-4.3c-2.6,0-3.9-1-3.9-3.1
			c0-1.2,0.7-4.5,2-9.9c0.6-2.6,2.2-3.9,4.9-3.9h5l0.9-4.7c2-8.9,5.3-15,10.1-18.3c6.2-4.4,14.7-6.6,25.7-6.6c1.9,0,3.4,0.4,4.4,1.2
			c1.1,0.8,1.6,1.9,1.6,3.2c0,2.7-0.4,5.6-1.1,8.6c-0.6,2.4-2.2,3.7-5.1,3.9c-3.9,0.3-6.6,0.7-8,1.2c-1.4,0.5-2.6,1.3-3.6,2.3
			c-1.2,1.3-2,3.2-2.4,5.7l-0.6,3.6h7.8c2.4,0,3.7,1.1,3.7,3.3c0,1.8-0.7,5.2-2,10.1c-0.6,2.4-2.3,3.6-5.1,3.6h-8l-7.9,37.6
			C416.6,125.7,415,127.3,412.2,127.3z"/>
		<path class="st0" d="M487.1,123.4c-1.3,1.2-3.2,2.1-5.6,2.8c-6.3,1.7-14.2,2.6-23.7,2.6c-8.2,0-13.8-1.4-16.9-4.2
			c-3.1-2.8-4.6-6.5-4.6-11.1c0-9,3.2-15.5,9.5-19.5c3.9-2.5,10.6-3.8,20-3.8c2.4,0,5.1,0.1,8.2,0.4l0.2-1.2
			c0.2-0.8,0.2-1.5,0.2-2.1c0-2.1-2.1-3.1-6.3-3.1c-3.5,0-7.1,0.2-10.8,0.7c-2.8,0.5-4.7,0.7-5.6,0.7c-1.7,0-2.7-1-3.1-3.1
			c-0.6-3.3-0.8-6.1-0.8-8.4c0-2.4,1.5-4.1,4.5-5.1c5.5-1.7,12.6-2.6,21.2-2.6c3.8,0,6.9,0.1,9.3,0.4c2.4,0.3,4.8,0.8,7.2,1.7
			s4.2,2.1,5.3,4c1.1,1.8,1.7,4.1,1.7,7c0,3.2-0.4,6.5-1.1,9.9l-5.9,27.5C489.5,119.9,488.4,122.1,487.1,123.4z M466,103.5
			c-3.1,0-5.2,0.4-6.4,1.2c-1.5,1-2.2,2.6-2.2,4.7c0,2.7,1.7,4,5,4c2.5,0,4.4-0.4,5.6-1.1c0.8-0.5,1.3-1.1,1.5-1.8
			c0.2-0.5,0.6-2.1,1.2-4.7l0.5-2.1C469.7,103.6,468,103.5,466,103.5z"/>
		<path class="st0" d="M519.9,127.3h-15c-1.9,0-2.8-0.9-2.8-2.7c0-0.5,0.1-1.4,0.4-2.8l8.9-41.7c0.6-2.4,1.2-4.1,2-5.3
			c0.8-1.1,2.1-2.2,4-3.3c2.3-1.3,6.1-2.4,11.3-3.5c5.2-1.1,9.8-1.6,13.8-1.6c4.9,0,8.1,0.4,9.6,1.1c1.3,0.7,2,2,2,3.9
			c0,1.1-0.2,2.8-0.7,5.1c-0.4,2.3-1,4.2-1.7,5.5c-0.8,1.6-2.2,2.4-4.3,2.4c-0.8,0-2.2,0-4.1-0.1c-2-0.1-3.4-0.1-4.1-0.1
			c-2.4,0-4.1,0.2-5.2,0.6c-0.7,0.3-1.3,0.7-1.7,1.2c-0.3,0.5-0.6,1.5-0.9,3l-7.1,34.3C523.5,125.9,522.1,127.3,519.9,127.3z"/>
		<path class="st0" d="M566.5,127.3h-14.7c-2.1,0-3.1-0.9-3.1-2.6c0-0.6,0.2-1.6,0.5-3.2l10.5-49.3c0.6-2.7,2.1-4,4.4-4H579
			c1.9,0,2.8,0.9,2.8,2.7c0,0.7-0.2,1.9-0.6,3.4l-10.4,49C570.3,125.9,568.9,127.3,566.5,127.3z M584.5,52.7
			c-0.6,2.1-1.5,3.7-2.7,4.9c-2.1,2-5,3-8.8,3c-6.2,0-9.2-2.7-9.2-8c0-4.3,1.1-7.6,3.2-9.7c2.3-2.3,5.3-3.4,9-3.4
			c6.3,0,9.5,2.6,9.5,7.9C585.4,48.8,585.1,50.6,584.5,52.7z"/>
	</g>
	<g>
		<path class="st1" d="M9.2,213.8c0,0,98.4-32.7,127.6-90.6c26.8-53.2,12.4-96.8,12.4-96.8l74.8-14c0,0,18.1,59.5-17.6,130.3
			C167.5,219.8,84.6,249,84.6,249L9.2,213.8z"/>
		<path class="st1" d="M84.8,85.2L84.8,85.2c-11.3,1.9-22-5.7-23.9-17l0,0c-1.9-11.3,5.7-22,17-23.9l0,0c11.3-1.9,22,5.7,23.9,17v0
			C103.7,72.6,96.1,83.3,84.8,85.2z"/>
		<path class="st1" d="M43,144.6L43,144.6c-11.3,1.9-22-5.7-23.9-17l0,0c-1.9-11.3,5.7-22,17-23.9h0c11.3-1.9,22,5.7,23.9,17l0,0
			C61.9,132,54.3,142.7,43,144.6z"/>
	</g>
	<g>
		<path class="st0" d="M277.1,145.8c-1.7-0.2-3.8-0.2-6.2,0s-5,0.5-7.8,1.1c-2.8,0.6-5.6,1.3-8.4,2.2c-2.8,0.9-5.4,2-7.8,3.2
			c-2.4,1.3-4.4,2.7-6,4.4c-1.7,1.7-2.7,3.5-3.2,5.6c-0.1,0.7,0.3,1,1,1.1c0.5,0,0.9,0,1.4-0.1c0.5-0.1,1.1-0.2,1.7-0.1
			c0.2,0,0.4,0.1,0.7,0.2c0.3,0.1,0.4,0.4,0.3,0.8c-0.1,0.6-0.5,1.3-1.4,2.1c-0.9,0.9-1.9,1.7-3.1,2.4c-1.2,0.8-2.6,1.4-4,1.9
			c-1.4,0.5-2.8,0.7-4,0.6c-1.3-0.1-2.3-0.8-2.9-1.9c-0.6-1.2-0.9-2.4-0.7-3.8c0.1-1.2,0.6-2.4,1.3-3.4c0.7-1.1,1.5-2.1,2.4-3
			c3.2-3.4,7-6.5,11.5-9.2c4.4-2.7,9.2-4.9,14.3-6.7c5.1-1.8,10.5-3,16.1-3.7c5.6-0.7,11.1-0.8,16.4-0.2c1.6,0.2,3.1,0.6,4.6,1.2
			s2.8,1.5,4,2.6c1.2,1.1,2.1,2.4,2.7,3.9c0.6,1.5,0.9,3.1,0.7,4.9c-0.3,2.6-1.3,5.3-3.1,8.1c-1.8,2.8-3.8,5.4-6.2,7.8
			c-2.4,2.5-4.7,4.7-7.1,6.8c-2.4,2.1-4.4,3.7-6.1,5c10.4,4.3,15,11.8,13.9,22.4c-0.7,6.7-3.2,12.7-7.4,18.1
			c-4.2,5.4-9.4,9.9-15.4,13.7c-6.1,3.7-12.6,6.4-19.6,8.2c-7,1.7-13.7,2.2-20.1,1.5c-0.8-0.1-1.7-0.2-2.6-0.4
			c-0.9-0.1-1.8-0.3-2.6-0.5l-0.2,1.7c-0.1,0.8-0.5,1.5-1.2,2.3c-0.8,0.8-1.6,1.5-2.6,2.1c-1,0.7-2,1.2-3.1,1.5
			c-1.1,0.4-2,0.5-2.8,0.4c-1.1-0.1-1.6-0.9-1.5-2.4c0.1-1.2,0.5-2.6,1-4.1c0.5-1.5,1-2.8,1.3-3.8c-1.3-0.5-2.6-1.2-3.9-2
			c-1.3-0.8-2.5-1.8-3.6-2.9c-1.1-1.1-1.9-2.4-2.6-3.8c-0.7-1.4-0.9-2.9-0.7-4.5c0.2-1.4,0.6-2.9,1.4-4.3c0.8-1.5,1.7-2.8,2.9-4
			c1.1-1.2,2.4-2.1,3.7-2.8c1.4-0.7,2.7-1,4-0.9c1.1,0.1,1.7,0.7,1.7,1.7c-0.1,0.8-0.5,1.5-1.2,2.2c-0.7,0.7-1.1,1.6-1.2,2.9
			c-0.2,1.5,0.2,2.9,1.1,4.3c0.9,1.4,2,2.5,3.2,3.4c2.8-5.9,5.9-11.6,9.2-17.1c3.3-5.5,6.6-11,10-16.5l-0.8-0.1
			c-2-0.2-3.4-0.8-4.4-1.8c-0.9-1-1.3-2.1-1.2-3.4c0.2-1.8,0.9-3.4,2.1-4.8c1.2-1.4,2.7-2.7,4.4-3.8c1.7-1.1,3.6-2,5.7-2.8
			c2-0.8,3.9-1.4,5.7-1.9c1.9-3,3.7-6.1,5.3-9.3c1.6-3.2,2.6-6.6,3-10.2c0.1-0.5,0.3-0.9,0.7-1.3c0.4-0.4,0.8-0.7,1.1-1.1
			c0.2-0.2,0.6-0.4,1.2-0.8c0.6-0.4,1.3-0.7,2.1-1.1c0.8-0.4,1.6-0.7,2.4-1c0.8-0.3,1.5-0.4,2-0.4c0.8,0.1,1.1,0.5,1,1.2
			c-0.5,4.5-1.7,8.7-3.8,12.5c-2,3.8-4,7.3-6,10.4c1.3,0,2.6-0.1,3.9,0c1.2,0,2.5,0.1,3.8,0.3l2,0.2c0.8,0.1,1.7,0.3,2.9,0.6
			c1.4-1.1,3.2-2.4,5.1-3.9c2-1.5,3.8-3.2,5.6-5c1.8-1.8,3.3-3.7,4.6-5.7c1.3-2,2.1-4,2.3-6.1c0.2-1.8-0.1-3.3-0.8-4.6
			c-0.7-1.3-1.7-2.4-2.9-3.2c-1.2-0.8-2.7-1.5-4.3-2C280.3,146.3,278.7,146,277.1,145.8z M235.6,234.7c4.5,0.5,9.3,0.4,14.4-0.3
			c5.1-0.7,9.8-2.1,14.2-4.3c4.4-2.1,8.2-5.1,11.4-8.8c3.2-3.7,5-8.4,5.6-14.1c0.5-4.8-0.3-8.9-2.3-12.3c-2.1-3.4-5.6-6.2-10.7-8.4
			c-6.1,3.9-12.7,6.7-19.6,8.5c-2.8,4.7-5.2,8.9-7.3,12.6c-2.1,3.6-4,6.9-5.7,9.9c-1.7,3-3.2,5.7-4.4,8.2c-1.3,2.5-2.5,5-3.6,7.5
			c1.3,0.3,2.6,0.6,3.9,0.9C232.7,234.3,234.1,234.5,235.6,234.7z M245.9,185c-0.2,0.1-0.6,0.1-1.2,0.2c-0.6,0.1-1,0.3-1,0.7
			c0,0.2,0.1,0.5,0.3,0.8c0.2,0.4,0.4,0.6,0.6,0.8L245.9,185z M260.9,184.8l-3.9-0.4c-0.7-0.1-1.4-0.1-2.1-0.1l-1.9,3.4
			C255.7,186.9,258.4,185.9,260.9,184.8z"/>
	</g>
	<g>
		<path class="st0" d="M339.4,179.9c0.6-1,1.2-2,1.6-2.9c0.5-0.9,1-1.7,1.6-2.5c0.6-0.8,1.3-1.5,2.2-2.2c0.8-0.7,1.9-1.3,3.2-1.9
			c0.2-0.1,0.6-0.2,1.1-0.3c0.5-0.1,1-0.2,1.4-0.2c0.7,0,1.1,0.3,1.1,0.8c0,0.1-0.1,0.4-0.3,0.8c-1,2.1-2.4,4.5-4.3,7.3
			c-1.8,2.8-3.8,5.5-6.1,8c-2.3,2.6-4.7,4.8-7.3,6.6c-2.6,1.8-5.3,2.7-8,2.7c-2.5,0-4.3-1.1-5.4-3.3c-1.1-2.2-1.8-4.5-1.9-6.7
			c-0.6,0.8-1.5,1.9-2.7,3.1c-1.2,1.2-2.5,2.4-3.9,3.6c-1.4,1.1-2.8,2.1-4.3,2.9c-1.5,0.8-2.9,1.2-4.3,1.2c-2.1,0-3.6-0.9-4.5-2.8
			s-1.4-3.7-1.4-5.6c0-2.5,0.5-5.2,1.4-8c0.9-2.9,2.1-5.7,3.5-8.5c1.4-2.8,2.9-5.3,4.5-7.7c1.6-2.3,3-4.2,4.3-5.6
			c2-2.2,4.4-4,7.3-5.5c2.9-1.5,5.8-2.2,8.8-2.2c2.4,0,4.7,0.6,7.1,1.9c0.2-0.2,0.6-0.5,1.2-0.8c0.6-0.4,1.3-0.7,2-1.2
			c0.7-0.4,1.4-0.7,2.1-1c0.7-0.3,1.3-0.4,1.8-0.4c0.7,0,1.1,0.2,1.1,0.6c0,0.1,0,0.2-0.1,0.3c-0.1,0.1-0.1,0.2-0.1,0.3
			c-0.1,0.1-0.2,0.2-0.2,0.3c-0.5,0.8-1,1.6-1.5,2.2c-0.5,0.7-1,1.4-1.5,2.2c-1.2,1.8-2.5,3.6-3.7,5.6c-1.2,2-2.3,4-3.3,6.2
			c-1,2.2-1.8,4.4-2.5,6.6c-0.7,2.3-1,4.5-1,6.8c0,1.5,0.3,3.1,0.9,4.8c0.6,1.7,1.8,2.8,3.6,3.4c1.2-1.2,2.4-2.7,3.6-4.3
			C337.6,182.9,338.6,181.3,339.4,179.9z M309.9,188.5c3.8-4.5,7.1-9.1,9.8-13.8c2.7-4.7,5.4-9.4,8-14c-1.1-0.6-2.2-1.1-3.2-1.5
			c-1-0.4-2.2-0.6-3.6-0.6c-0.5,0-1,0-1.3,0.1c-0.4,0.1-0.7,0.1-1,0.1c-0.4,0.1-0.7,0.2-0.9,0.2c-0.8,1.1-1.8,2.6-2.9,4.5
			c-1.1,1.9-2.2,3.9-3.3,6c-1.1,2.2-2,4.4-2.8,6.6c-0.8,2.3-1.2,4.4-1.2,6.3C307.4,184.9,308.2,187,309.9,188.5z"/>
		<path class="st0" d="M370.8,181.7c1.4-1.5,3-3.3,4.6-5.2c1.6-1.9,3.3-3.4,5-4.4c0.2-0.2,0.7-0.4,1.5-0.6c0.8-0.2,1.5-0.3,2.1-0.3
			c0.8,0,1.2,0.4,1.2,1.1c0,0.4-0.2,1-0.6,1.7c-0.4,0.7-0.8,1.2-1.1,1.5l-8.2,8.2c-2.7,2.7-5,5.4-7,8.2c-0.6,2.7-1.2,5-1.7,7
			c-0.5,2-1,3.8-1.4,5.3c-0.4,1.5-0.8,2.9-1.2,4.1c-0.4,1.2-0.8,2.3-1.2,3.5c-0.6,1.8-1.5,4.1-2.7,7.1c-1.2,3-2.6,6.2-4.3,9.5
			c-1.7,3.3-3.5,6.7-5.4,10.1c-2,3.4-4.1,6.5-6.3,9.2c-2.3,2.7-4.6,5-7,6.7c-2.4,1.8-4.9,2.6-7.3,2.6c-1.4,0-2.5-0.6-3.2-1.9
			c-0.7-1.3-1-2.7-1-4.1c0-4,1.2-8.5,3.5-13.5c2.3-5,5.2-10,8.6-15c3.4-5,7-9.9,10.9-14.6c3.9-4.7,7.3-8.9,10.3-12.5l1.2-4.9
			c-0.6,0.5-1.4,1.2-2.3,2c-0.9,0.8-2,1.6-3.1,2.4c-1.1,0.8-2.3,1.4-3.4,2c-1.1,0.6-2.2,0.9-3.2,0.9c-0.9,0-1.7-0.3-2.4-0.9
			c-0.7-0.6-1.2-1.3-1.5-2.1c-0.4-0.8-0.6-1.7-0.9-2.7c-0.2-1-0.3-1.9-0.3-2.7c0-2.6,0.4-5.4,1.3-8.6c0.9-3.1,1.9-6.2,3.2-9.2
			c1.2-3,2.5-5.7,3.9-8.2c1.3-2.5,2.4-4.3,3.2-5.6c0.8-1.1,2-2.3,3.6-3.6c1.6-1.2,3.2-1.9,4.9-1.9c0.2,0,0.5,0.1,0.8,0.2
			c0.3,0.2,0.5,0.4,0.5,0.7c0,0.7-0.4,1.5-1.2,2.5c-0.8,0.9-1.4,1.8-1.9,2.6c-2.3,3.6-4.2,7.6-5.8,12.1c-1.6,4.4-2.4,8.9-2.4,13.5
			c0,1.1,0.1,2.2,0.3,3.2c0.2,1,0.6,1.9,1.2,2.6c0.7-0.6,1.5-1.4,2.4-2.3c0.9-0.9,1.7-1.9,2.6-2.9c0.8-1,1.6-2.1,2.3-3.1
			c0.7-1,1.2-2,1.5-2.9c1.5-3.7,2.9-7.5,4.2-11.4c1.2-3.9,2.9-7.8,5.1-11.7c0.6-1.2,1.8-2.4,3.6-3.6c1.8-1.1,3.4-1.7,4.9-1.7
			c0.7,0,1.1,0.3,1.1,0.8c0,0.2-0.1,0.4-0.2,0.5v0.2c-0.1,0.1-0.2,0.2-0.2,0.3c-2.3,4.7-4.3,9.6-6.1,14.5
			C373.9,171.4,372.2,176.5,370.8,181.7z M336.3,248.7c2.1-2.6,4.1-5.6,6.2-9.1c2.1-3.5,4-7.2,5.7-11c1.8-3.8,3.3-7.6,4.6-11.4
			c1.3-3.8,2.4-7.2,3.2-10.3c-1,1.4-2.7,3.7-4.9,6.8c-2.3,3.1-4.6,6.5-6.9,10.3c-2.3,3.8-4.4,7.5-6.1,11.4c-1.8,3.8-2.6,7.1-2.6,9.7
			C335.5,246.8,335.8,248,336.3,248.7z"/>
	</g>
	<path class="st0" d="M378.7,180.3c0,0,9.8-9.3,25.7-14.8c20.3-7,64.5-7.2,87.2-7.3c26.4-0.1,64.5,0.5,64.5,0.5s15.8-0.3,6.8-2
		c-9.2-1.8-84-4.1-96.4-3.5s-49.1,1.8-61.2,5.3c-12.1,3.5-17.8,7.3-23.2,11.6s-10.8,11.1-10.8,11.1L378.7,180.3z"/>
</g>
</svg>
